<svg width="16" height="13" viewBox="0 0 16 13" fill="none" xmlns="http://www.w3.org/2000/svg">
<path d="M4.99796 10.7903C5.15356 10.64 5.28287 10.455 5.3859 10.2331C5.48998 10.0113 5.57198 9.7569 5.63401 9.46674L5.73283 8.97367H5.71076C5.61509 9.1156 5.50995 9.25122 5.39746 9.37632C5.28287 9.50248 5.15776 9.61287 5.02109 9.70854C4.88442 9.80421 4.73303 9.88095 4.56482 9.93773C4.39766 9.99345 4.21053 10.0218 4.00237 10.0218C3.71536 10.0218 3.46619 9.96926 3.25278 9.86624C3.03726 9.7611 2.85853 9.61497 2.7145 9.42994C2.69348 9.40366 2.6735 9.37527 2.65458 9.34689C-0.488863 8.67299 0.948288 5.15528 3.75425 3.13045C3.85203 3.0579 3.9519 2.98641 4.05598 2.91703C5.23977 2.11172 6.63907 1.5009 8.06571 1.20653C8.17504 1.1771 8.28333 1.15081 8.38951 1.12769C2.66404 1.75427 -0.831592 6.97301 0.581379 8.85802L0.38268 9.71274L0 11.3023H1.52441H3.3085H3.66174C3.92036 11.3023 4.19791 11.2193 4.44287 11.132C4.65839 11.0553 4.84237 10.9407 4.99796 10.7903Z" fill="#5F007C"/>
<path d="M6.20382 6.72593L6.49609 5.39706C6.41198 5.38024 6.31421 5.36552 6.20172 5.35606C6.08923 5.3487 5.97148 5.34344 5.84743 5.34344C5.59511 5.34344 5.35856 5.40547 5.13673 5.53058C4.91386 5.65358 4.72041 5.82495 4.55746 6.04047C4.39345 6.25599 4.26204 6.51041 4.16742 6.80372C4.07175 7.09809 4.02339 7.41349 4.02339 7.74886C4.02339 7.88553 4.03811 8.01169 4.06439 8.12523C4.09278 8.24193 4.13588 8.34075 4.1937 8.42486C4.25153 8.50896 4.32512 8.57519 4.41133 8.62145C4.49753 8.66981 4.59741 8.69294 4.71095 8.69294C4.85708 8.69294 4.9906 8.66456 5.11361 8.60463C5.23556 8.54681 5.34805 8.46796 5.44898 8.36703C5.54885 8.26611 5.63821 8.14941 5.71811 8.01905C5.79591 7.88763 5.8674 7.74676 5.92943 7.60062C5.99146 7.45449 6.04612 7.30625 6.09028 7.15592C6.13759 7.00558 6.17544 6.8626 6.20382 6.72593Z" fill="#5F007C"/>
<path d="M8.42105 1.11087L8.55772 1.16764L8.66601 1.2917C8.75012 1.37265 8.76694 1.29906 8.76694 1.29906L8.82896 1.11823L9.6574 1.03938L9.8582 1.1771L9.83613 1.53455C9.82561 1.70381 9.94336 1.63968 9.99593 1.53876L10.3439 0.875375L11.2302 0.56839C11.3395 0.530543 11.4142 0.409642 11.2996 0.346562C11.1997 0.323433 10.9589 0.244585 10.8685 0.268765L10.1179 0.472721L10.0043 0.43277L8.45154 0.00803824C8.31592 -0.0319118 8.22761 0.090041 8.22761 0.090041L9.31257 0.70401L8.94146 0.840682L8.62396 0.563134L8.57455 0.579955C8.54721 0.588365 8.53985 0.59993 8.5409 0.65565C8.54195 0.718729 8.54301 0.780757 8.54511 0.843836L8.2581 0.737653C8.16138 0.706113 8.09725 0.769192 8.09725 0.769192L8.43157 1.02992L8.42105 1.11087Z" fill="#5F007C"/>
<path d="M16 3.15043H12.6926H7.26776C6.49819 3.15043 5.67396 3.06738 4.91596 3.28079C2.20146 4.00831 1.58013 6.29808 1.58013 6.29808C0.78218 8.40176 1.86399 9.09668 2.64091 9.32692C2.53157 9.16186 2.44642 8.97368 2.38649 8.75816C2.31395 8.49953 2.27715 8.21042 2.27715 7.89608C2.27715 7.58068 2.3108 7.26949 2.37808 6.96041C2.44642 6.65027 2.54734 6.35695 2.68401 6.0752C2.81963 5.79555 2.98995 5.53692 3.1939 5.29932C3.39786 5.06068 3.63861 4.85462 3.90985 4.68115C4.18424 4.50663 4.48913 4.37101 4.8308 4.27219C5.17248 4.17336 5.54675 4.12395 5.95782 4.12395C6.1849 4.12395 6.40988 4.13131 6.63486 4.14813C6.86195 4.16495 7.08062 4.18598 7.29404 4.21331C7.50746 4.2417 7.71246 4.27114 7.90696 4.30688C8.1004 4.34052 8.28018 4.37416 8.44523 4.40781L7.42966 9.20917C7.32663 9.69804 7.18996 10.148 7.01754 10.5538C6.84513 10.9607 6.61279 11.3097 6.32052 11.602C6.02825 11.8921 5.65819 12.1192 5.21664 12.2822C4.86865 12.4104 4.45864 12.4872 3.9866 12.5145C6.27847 12.6281 6.99547 11.6556 7.17945 11.3013H10.8002C12.619 11.3013 14.1802 10.9912 14.8772 7.99385L15.6804 4.53712L15.2346 6.45788L16 3.15043ZM14.1507 7.29157C14.0982 7.56702 14.0172 7.8351 13.9089 8.09583C13.7985 8.35866 13.6556 8.60572 13.4831 8.84016C13.3086 9.0746 13.0963 9.27961 12.8513 9.45308C12.6032 9.6276 12.3183 9.76427 11.9945 9.8673C11.6707 9.97033 11.3006 10.0208 10.8864 10.0208C10.4701 10.0208 10.1063 9.96087 9.79618 9.84102C9.48709 9.71906 9.23057 9.5519 9.02976 9.34059C8.82896 9.12822 8.67863 8.87591 8.5798 8.58469C8.47993 8.29348 8.43157 7.97913 8.43157 7.64376C8.43157 7.37252 8.45785 7.09603 8.51357 6.81637C8.56824 6.53567 8.65234 6.26548 8.76904 6.00686C8.88363 5.74613 9.03187 5.50223 9.21164 5.27304C9.38932 5.0428 9.60589 4.8441 9.85505 4.67274C10.1021 4.50243 10.3881 4.36891 10.7077 4.27008C11.0283 4.17021 11.3879 4.12185 11.7874 4.12185C12.1795 4.12185 12.5264 4.17757 12.8282 4.28796C13.1299 4.40045 13.3854 4.56025 13.5914 4.76631C13.7975 4.97236 13.9552 5.22258 14.0635 5.51274C14.1728 5.80501 14.2264 6.12986 14.2264 6.48731C14.2275 6.75014 14.2012 7.01823 14.1507 7.29157Z" fill="#5F007C"/>
<path d="M12.2573 5.75138C12.1858 5.65886 12.0996 5.58422 11.9966 5.53165C11.8936 5.47909 11.7748 5.45386 11.6402 5.45386C11.4099 5.45386 11.2039 5.51904 11.022 5.65045C10.8401 5.78187 10.6877 5.95218 10.5626 6.16245C10.4385 6.37061 10.3429 6.60505 10.2777 6.86578C10.2114 7.1244 10.1778 7.38513 10.1778 7.64585C10.1778 7.97807 10.2566 8.23669 10.4122 8.41962C10.5678 8.6015 10.7707 8.69402 11.0199 8.69402C11.2575 8.69402 11.4657 8.62989 11.6475 8.50268C11.8294 8.37337 11.9808 8.20621 12.1028 8.00015C12.2268 7.79199 12.3183 7.55965 12.3803 7.29892C12.4423 7.03819 12.4739 6.77747 12.4739 6.51253C12.4739 6.35904 12.455 6.21711 12.4192 6.08675C12.3824 5.95744 12.3288 5.84495 12.2573 5.75138Z" fill="#5F007C"/>
</svg>
